<svg xmlns="http://www.w3.org/2000/svg" xmlns:xlink="http://www.w3.org/1999/xlink" contentStyleType="text/css" height="334px" preserveAspectRatio="none" style="width:331px;height:334px;background:#FFFFFF;" version="1.1" viewBox="0 0 331 334" width="331px" zoomAndPan="magnify"><title>Runtime: next_generation()</title><defs/><g><text fill="#000000" font-family="sans-serif" font-size="14" font-weight="bold" lengthAdjust="spacing" textLength="192.1493" x="68.5714" y="29.9659">Runtime: next_generation()</text><rect fill="#FFFFFF" height="182.5301" style="stroke:#181818;stroke-width:1;" width="10" x="41.6569" y="89.1358"/><rect fill="#FFFFFF" height="31.706" style="stroke:#181818;stroke-width:1;" width="10" x="299.985" y="112.8419"/><line style="stroke:#181818;stroke-width:0.5;stroke-dasharray:5.0,5.0;" x1="46" x2="46" y1="79.1358" y2="296.6659"/><line style="stroke:#181818;stroke-width:0.5;stroke-dasharray:5.0,5.0;" x1="304.6781" x2="304.6781" y1="79.1358" y2="296.6659"/><rect fill="#E2E2F0" height="33.0679" rx="2.5" ry="2.5" style="stroke:#181818;stroke-width:0.5;" width="83.3137" x="5" y="45.0679"/><text fill="#000000" font-family="sans-serif" font-size="14" lengthAdjust="spacing" textLength="69.3137" x="12" y="67.0339">simulation</text><rect fill="#E2E2F0" height="33.0679" rx="2.5" ry="2.5" style="stroke:#181818;stroke-width:0.5;" width="83.3137" x="5" y="295.6659"/><text fill="#000000" font-family="sans-serif" font-size="14" lengthAdjust="spacing" textLength="69.3137" x="12" y="317.6319">simulation</text><rect fill="#E2E2F0" height="33.0679" rx="2.5" ry="2.5" style="stroke:#181818;stroke-width:0.5;" width="40.6139" x="284.6781" y="45.0679"/><text fill="#000000" font-family="sans-serif" font-size="14" lengthAdjust="spacing" textLength="26.6139" x="291.6781" y="67.0339">grid</text><rect fill="#E2E2F0" height="33.0679" rx="2.5" ry="2.5" style="stroke:#181818;stroke-width:0.5;" width="40.6139" x="284.6781" y="295.6659"/><text fill="#000000" font-family="sans-serif" font-size="14" lengthAdjust="spacing" textLength="26.6139" x="291.6781" y="317.6319">grid</text><rect fill="#FFFFFF" height="182.5301" style="stroke:#181818;stroke-width:1;" width="10" x="41.6569" y="89.1358"/><rect fill="#FFFFFF" height="31.706" style="stroke:#181818;stroke-width:1;" width="10" x="299.985" y="112.8419"/><polygon fill="#181818" points="287.985,108.8419,297.985,112.8419,287.985,116.8419,291.985,112.8419" style="stroke:#181818;stroke-width:1;"/><line style="stroke:#181818;stroke-width:1;" x1="51.6569" x2="293.985" y1="112.8419" y2="112.8419"/><text fill="#000000" font-family="sans-serif" font-size="13" lengthAdjust="spacing" textLength="215.2932" x="58.6569" y="107.0328">neighbours(cell) for each candidate</text><polygon fill="#181818" points="62.6569,140.5479,52.6569,144.5479,62.6569,148.5479,58.6569,144.5479" style="stroke:#181818;stroke-width:1;"/><line style="stroke:#181818;stroke-width:1;stroke-dasharray:2.0,2.0;" x1="56.6569" x2="303.985" y1="144.5479" y2="144.5479"/><text fill="#000000" font-family="sans-serif" font-size="13" lengthAdjust="spacing" textLength="157.1181" x="68.6569" y="138.7389">set of 8 neighbour coords</text><line style="stroke:#181818;stroke-width:1;" x1="51.6569" x2="93.6569" y1="176.2539" y2="176.2539"/><line style="stroke:#181818;stroke-width:1;" x1="93.6569" x2="93.6569" y1="176.2539" y2="189.2539"/><line style="stroke:#181818;stroke-width:1;" x1="52.6569" x2="93.6569" y1="189.2539" y2="189.2539"/><polygon fill="#181818" points="62.6569,185.2539,52.6569,189.2539,62.6569,193.2539,58.6569,189.2539" style="stroke:#181818;stroke-width:1;"/><text fill="#000000" font-family="sans-serif" font-size="13" lengthAdjust="spacing" textLength="220.1942" x="58.6569" y="170.4449">count live neighbours per candidate</text><line style="stroke:#181818;stroke-width:1;" x1="51.6569" x2="93.6569" y1="220.9599" y2="220.9599"/><line style="stroke:#181818;stroke-width:1;" x1="93.6569" x2="93.6569" y1="220.9599" y2="233.9599"/><line style="stroke:#181818;stroke-width:1;" x1="52.6569" x2="93.6569" y1="233.9599" y2="233.9599"/><polygon fill="#181818" points="62.6569,229.9599,52.6569,233.9599,62.6569,237.9599,58.6569,233.9599" style="stroke:#181818;stroke-width:1;"/><text fill="#000000" font-family="sans-serif" font-size="13" lengthAdjust="spacing" textLength="224.3282" x="58.6569" y="215.1509">apply Conway's rules &#8594; new live cells</text><line style="stroke:#181818;stroke-width:1;stroke-dasharray:2.0,2.0;" x1="51.6569" x2="93.6569" y1="270.6659" y2="270.6659"/><line style="stroke:#181818;stroke-width:1;stroke-dasharray:2.0,2.0;" x1="93.6569" x2="93.6569" y1="270.6659" y2="283.6659"/><line style="stroke:#181818;stroke-width:1;stroke-dasharray:2.0,2.0;" x1="46.6569" x2="93.6569" y1="283.6659" y2="283.6659"/><polygon fill="#181818" points="56.6569,279.6659,46.6569,283.6659,56.6569,287.6659,52.6569,283.6659" style="stroke:#181818;stroke-width:1;"/><text fill="#000000" font-family="sans-serif" font-size="13" lengthAdjust="spacing" textLength="196.4172" x="58.6569" y="264.8569">return new Grid (set of live cells)</text><!--SRC=[LT0nKWCn30NGtgVuauRT8ZsJWeQ2dWimnbOSpJYsHvOJSW4Em14v2TvTO3U52u_qz6KhQoIyjgHyfWCIVUXRe4HYbNCQHcEA5MN7nIR5hlAvnRcqWwter_jw4FPp9HXZdVB5AirT_M3_X80fWyFfFJUfWwCOHnopWAmxmTdasNUosc02zXrE_e1AYdp4upe3BcVnrNZQaB-q1RdSNuV85zf4ev1iykw0BINUy9pJrTuUAgH5glZ-_EhykioPzguB-bT2sYJDFI_z5p3yBhk2SRjbHpy0]--></g></svg>
