<svg xmlns="http://www.w3.org/2000/svg" xmlns:xlink="http://www.w3.org/1999/xlink" contentStyleType="text/css" height="426px" preserveAspectRatio="none" style="width:487px;height:426px;background:#FFFFFF;" version="1.1" viewBox="0 0 487 426" width="487px" zoomAndPan="magnify"><title>Deployment View &#8212; Game of Life</title><defs/><g><text fill="#000000" font-family="sans-serif" font-size="14" font-weight="bold" lengthAdjust="spacing" textLength="232.0911" x="120.4544" y="24.9659">Deployment View &#8212; Game of Life</text><!--cluster Developer Machine--><g id="cluster_Developer Machine"><polygon fill="none" points="16,56.0679,26,46.0679,470,46.0679,470,399.0679,460,409.0679,16,409.0679,16,56.0679" style="stroke:#181818;stroke-width:1;"/><line style="stroke:#181818;stroke-width:1;" x1="460" x2="470" y1="56.0679" y2="46.0679"/><line style="stroke:#181818;stroke-width:1;" x1="16" x2="460" y1="56.0679" y2="56.0679"/><line style="stroke:#181818;stroke-width:1;" x1="460" x2="460" y1="56.0679" y2="409.0679"/><text fill="#000000" font-family="sans-serif" font-size="14" font-weight="bold" lengthAdjust="spacing" textLength="134.7355" x="171.6322" y="74.0339">Developer Machine</text></g><!--cluster Python Runtime (3.11+)--><g id="cluster_Python Runtime (3.11+)"><polygon fill="none" points="40,107.0679,50,97.0679,446,97.0679,446,290.0679,436,300.0679,40,300.0679,40,107.0679" style="stroke:#181818;stroke-width:1;"/><line style="stroke:#181818;stroke-width:1;" x1="436" x2="446" y1="107.0679" y2="97.0679"/><line style="stroke:#181818;stroke-width:1;" x1="40" x2="436" y1="107.0679" y2="107.0679"/><line style="stroke:#181818;stroke-width:1;" x1="436" x2="436" y1="107.0679" y2="300.0679"/><text fill="#000000" font-family="sans-serif" font-size="14" font-weight="bold" lengthAdjust="spacing" textLength="162.6934" x="157.6533" y="125.0339">Python Runtime (3.11+)</text></g><!--entity terminal--><g id="elem_terminal"><rect fill="#F1F1F1" height="49.0679" rx="2.5" ry="2.5" style="stroke:#181818;stroke-width:0.5;" width="152.8676" x="299.5" y="344.0679"/><rect fill="#F1F1F1" height="10" style="stroke:#181818;stroke-width:0.5;" width="15" x="432.3676" y="349.0679"/><rect fill="#F1F1F1" height="2" style="stroke:#181818;stroke-width:0.5;" width="4" x="430.3676" y="351.0679"/><rect fill="#F1F1F1" height="2" style="stroke:#181818;stroke-width:0.5;" width="4" x="430.3676" y="355.0679"/><text fill="#000000" font-family="sans-serif" font-size="14" lengthAdjust="spacing" textLength="112.8676" x="314.5" y="379.0339">Terminal (stdout)</text></g><!--entity main--><g id="elem_main"><rect fill="#F1F1F1" height="42.0679" rx="2.5" ry="2.5" style="stroke:#181818;stroke-width:0.5;" width="82.7098" x="185.5" y="140.0679"/><polygon fill="#F1F1F1" points="251.2098,145.0679,251.2098,159.0679,263.2098,159.0679,263.2098,151.0679,257.2098,145.0679,251.2098,145.0679" style="stroke:#181818;stroke-width:0.5;"/><line style="stroke:#181818;stroke-width:0.5;" x1="257.2098" x2="257.2098" y1="145.0679" y2="151.0679"/><line style="stroke:#181818;stroke-width:0.5;" x1="263.2098" x2="257.2098" y1="151.0679" y2="151.0679"/><text fill="#000000" font-family="sans-serif" font-size="14" lengthAdjust="spacing" textLength="52.7098" x="195.5" y="168.0339">main.py</text></g><!--entity grid--><g id="elem_grid"><rect fill="#F1F1F1" height="42.0679" rx="2.5" ry="2.5" style="stroke:#181818;stroke-width:0.5;" width="76.1158" x="56" y="242.0679"/><polygon fill="#F1F1F1" points="115.1158,247.0679,115.1158,261.0679,127.1158,261.0679,127.1158,253.0679,121.1158,247.0679,115.1158,247.0679" style="stroke:#181818;stroke-width:0.5;"/><line style="stroke:#181818;stroke-width:0.5;" x1="121.1158" x2="121.1158" y1="247.0679" y2="253.0679"/><line style="stroke:#181818;stroke-width:0.5;" x1="127.1158" x2="121.1158" y1="253.0679" y2="253.0679"/><text fill="#000000" font-family="sans-serif" font-size="14" lengthAdjust="spacing" textLength="46.1158" x="66" y="270.0339">grid.py</text></g><!--entity sim--><g id="elem_sim"><rect fill="#F1F1F1" height="42.0679" rx="2.5" ry="2.5" style="stroke:#181818;stroke-width:0.5;" width="118.8157" x="167.5" y="242.0679"/><polygon fill="#F1F1F1" points="269.3157,247.0679,269.3157,261.0679,281.3157,261.0679,281.3157,253.0679,275.3157,247.0679,269.3157,247.0679" style="stroke:#181818;stroke-width:0.5;"/><line style="stroke:#181818;stroke-width:0.5;" x1="275.3157" x2="275.3157" y1="247.0679" y2="253.0679"/><line style="stroke:#181818;stroke-width:0.5;" x1="281.3157" x2="275.3157" y1="253.0679" y2="253.0679"/><text fill="#000000" font-family="sans-serif" font-size="14" lengthAdjust="spacing" textLength="88.8157" x="177.5" y="270.0339">simulation.py</text></g><!--entity rend--><g id="elem_rend"><rect fill="#F1F1F1" height="42.0679" rx="2.5" ry="2.5" style="stroke:#181818;stroke-width:0.5;" width="107.7977" x="322" y="242.0679"/><polygon fill="#F1F1F1" points="412.7977,247.0679,412.7977,261.0679,424.7977,261.0679,424.7977,253.0679,418.7977,247.0679,412.7977,247.0679" style="stroke:#181818;stroke-width:0.5;"/><line style="stroke:#181818;stroke-width:0.5;" x1="418.7977" x2="418.7977" y1="247.0679" y2="253.0679"/><line style="stroke:#181818;stroke-width:0.5;" x1="424.7977" x2="418.7977" y1="253.0679" y2="253.0679"/><text fill="#000000" font-family="sans-serif" font-size="14" lengthAdjust="spacing" textLength="77.7977" x="332" y="270.0339">renderer.py</text></g><!--link main to grid--><g id="link_main_grid"><path d="M200.09,182.3079 C177.01,199.6579 148.7363,220.9129 125.6663,238.2529 " fill="none" id="main-to-grid" style="stroke:#181818;stroke-width:1;"/><polygon fill="#181818" points="120.87,241.8579,130.4677,239.6479,124.8669,238.8538,125.6611,233.2529,120.87,241.8579" style="stroke:#181818;stroke-width:1;"/></g><!--link main to sim--><g id="link_main_sim"><path d="M227,182.3079 C227,199.6579 227,218.5179 227,235.8579 " fill="none" id="main-to-sim" style="stroke:#181818;stroke-width:1;"/><polygon fill="#181818" points="227,241.8579,231,232.8579,227,236.8579,223,232.8579,227,241.8579" style="stroke:#181818;stroke-width:1;"/></g><!--link main to rend--><g id="link_main_rend"><path d="M257.15,182.3079 C283.09,199.7079 315.3172,221.3455 341.1672,238.6855 " fill="none" id="main-to-rend" style="stroke:#181818;stroke-width:1;"/><polygon fill="#181818" points="346.15,242.0279,340.9041,233.6924,341.9977,239.2426,336.4475,240.3361,346.15,242.0279" style="stroke:#181818;stroke-width:1;"/></g><!--link rend to terminal--><g id="link_rend_terminal"><path d="M376,284.5179 C376,301.5979 376,319.9779 376,337.8979 " fill="none" id="rend-to-terminal" style="stroke:#181818;stroke-width:1;"/><polygon fill="#181818" points="376,343.8979,380,334.8979,376,338.8979,372,334.8979,376,343.8979" style="stroke:#181818;stroke-width:1;"/></g><!--SRC=[NO_1QiCm38RlVeeVdrf62sNtdGgxR516sTqaoYgmfU0eAs4KzX1xmZt9ucJD8GSP_Ve_oPAnHSAHsgX38Z6yCrtn-_s3vv08sk256t9Ej2Ru8trIr9OoNaDrOI6FBmVCvccmYmhUUZ4UMpUF-yFXOJiJGCZ6JQWCFWMMVJjuX0ubNzaVcUkxNVALtN7gOp3MPSPOMJ6PfAPC-KuKFIAtCIfDhKevr9yf9vOGiUcirjws4sl_LNTphco7tUvftcDHvSD5JBFBCwcb-my0]--></g></svg>
